<svg width="400" height="250" viewBox="0 0 400 250" xmlns="http://www.w3.org/2000/svg">
  <!-- Background -->
  <rect width="400" height="250" fill="#f8f9fa"/>
  
  <!-- Excel Document Icon -->
  <g transform="translate(100, 50)">
    <!-- Main document body -->
    <rect x="0" y="0" width="120" height="150" fill="#217346" rx="8"/>
    
    <!-- Document pages effect -->
    <rect x="8" y="-8" width="120" height="150" fill="#0e5c2f" rx="8"/>
    <rect x="16" y="-16" width="120" height="150" fill="#ffffff" rx="8" stroke="#e0e0e0" stroke-width="1"/>
    
    <!-- Excel "X" letter -->
    <text x="76" y="100" font-family="Arial, sans-serif" font-size="48" font-weight="bold" fill="#217346" text-anchor="middle">X</text>
    
    <!-- Spreadsheet grid -->
    <g transform="translate(140, 20)">
      <!-- Header row -->
      <rect x="0" y="0" width="60" height="8" fill="#217346" rx="2"/>
      
      <!-- Grid lines -->
      <g stroke="#217346" stroke-width="1" fill="none">
        <!-- Horizontal lines -->
        <line x1="0" y1="15" x2="60" y2="15"/>
        <line x1="0" y1="25" x2="60" y2="25"/>
        <line x1="0" y1="35" x2="60" y2="35"/>
        <line x1="0" y1="45" x2="60" y2="45"/>
        <line x1="0" y1="55" x2="60" y2="55"/>
        <line x1="0" y1="65" x2="60" y2="65"/>
        <line x1="0" y1="75" x2="60" y2="75"/>
        <line x1="0" y1="85" x2="60" y2="85"/>
        <line x1="0" y1="95" x2="60" y2="95"/>
        
        <!-- Vertical lines -->
        <line x1="15" y1="8" x2="15" y2="95"/>
        <line x1="30" y1="8" x2="30" y2="95"/>
        <line x1="45" y1="8" x2="45" y2="95"/>
        <line x1="60" y1="8" x2="60" y2="95"/>
      </g>
      
      <!-- Some filled cells to represent data -->
      <rect x="1" y="16" width="13" height="8" fill="#e8f5e8"/>
      <rect x="16" y="26" width="13" height="8" fill="#e8f5e8"/>
      <rect x="31" y="16" width="13" height="8" fill="#e8f5e8"/>
      <rect x="1" y="36" width="13" height="8" fill="#e8f5e8"/>
    </g>
  </g>
</svg>